<svg version="1.1" id="Layer_1" xmlns="http://www.w3.org/2000/svg" xmlns:xlink="http://www.w3.org/1999/xlink" x="0px" y="0px"
	 width="100%" viewBox="0 0 749 748" enable-background="new 0 0 749 748" xml:space="preserve">
<path fill="#FEFEFE" opacity="1.000000" stroke="none" 
	d="
M391.864136,1.387598 
	C509.926544,1.000000 627.853088,1.022162 745.779480,0.896973 
	C749.457947,0.893069 750.094910,1.743445 750.091431,5.274386 
	C749.980347,118.537071 750.000000,231.799881 750.000000,345.531342 
	C749.581238,346.372101 749.093201,346.532990 748.166199,346.333740 
	C746.172729,344.290192 745.847778,342.020538 745.956787,339.279236 
	C746.333862,337.604797 746.576965,336.299988 745.395935,334.842102 
	C744.761536,333.212921 744.770142,331.849304 744.970398,330.148682 
	C745.353394,328.605835 745.652344,327.392151 744.511047,326.023071 
	C744.014038,324.901794 743.965942,324.028992 744.082886,322.812805 
	C744.388672,321.420746 744.537903,320.371613 743.577332,319.158325 
	C743.056641,318.061523 742.984619,317.205536 743.051086,316.024933 
	C743.180176,314.928314 743.155029,314.158142 742.598755,313.182892 
	C742.231079,312.356293 742.143494,311.768250 742.180664,310.869934 
	C742.347473,309.834564 742.548706,309.096283 742.240479,308.066620 
	C741.778992,306.897278 741.404419,305.999268 741.293945,304.730835 
	C741.302490,303.676727 741.128479,302.962952 740.564819,302.061157 
	C740.208130,301.246063 740.134338,300.662842 740.146729,299.771027 
	C740.296753,298.424286 739.840393,297.548431 739.212036,296.382385 
	C738.144836,291.975983 737.382874,287.832428 736.247009,283.422241 
	C736.246948,281.936981 736.072510,280.848969 735.240967,279.565002 
	C729.588135,257.305054 720.886658,236.525925 712.042969,215.405701 
	C711.661011,214.129120 711.382385,213.209625 710.510376,212.170593 
	C697.945984,186.652710 682.881775,163.157318 665.208679,141.346191 
	C642.756042,113.636421 616.975952,89.504143 587.612793,69.198082 
	C544.851379,39.626457 498.037476,19.716810 446.991882,9.777028 
	C444.709930,9.332674 442.346069,9.276595 439.822021,8.276690 
	C438.640564,7.827733 437.771149,7.629429 436.510559,7.838954 
	C433.139221,7.687287 430.138458,7.309060 426.906128,6.306995 
	C425.793427,5.858926 424.984650,5.586611 423.779175,5.812606 
	C421.875885,6.162951 420.371826,5.860864 418.600342,5.153631 
	C417.474365,4.733419 416.639832,4.613091 415.445557,4.910007 
	C412.717987,5.432563 410.416046,4.989384 407.804047,4.156087 
	C406.543945,3.793110 405.616821,3.699111 404.303589,4.006164 
	C400.151978,4.658552 396.505920,4.020009 392.565796,2.648026 
	C392.051788,2.217040 391.890045,1.996118 391.864136,1.387598 
z"/>
<path fill="#FEFEFE" opacity="1.000000" stroke="none" 
	d="
M1.364703,367.147461 
	C1.000000,246.407913 1.021482,125.815796 0.897712,5.223835 
	C0.893946,1.554445 1.731137,0.904260 5.271108,0.907800 
	C117.534882,1.020042 229.798798,1.000000 342.531342,1.000000 
	C343.370422,1.410744 343.534119,1.891530 343.349609,2.809966 
	C341.343872,4.797311 339.095581,5.121134 336.383179,5.046746 
	C335.139862,4.878400 334.269531,4.584001 333.040344,4.830305 
	C331.266479,5.271510 329.853729,5.850017 328.002014,5.866622 
	C326.582367,5.700385 325.626343,6.092731 324.386658,6.776578 
	C287.986938,11.018678 253.812408,21.718571 220.791870,36.512589 
	C188.946243,50.780220 159.894226,69.502991 133.503250,92.191307 
	C98.587761,122.208138 69.883644,157.366882 47.887039,197.955490 
	C26.543812,237.338531 12.987311,279.234497 6.618237,323.493164 
	C4.771178,336.328400 3.744769,349.264160 3.290480,362.234070 
	C3.243842,363.565582 3.259287,364.902100 2.578731,366.514771 
	C2.163917,367.001099 1.946661,367.148010 1.364703,367.147461 
z"/>
<path fill="#FEFEFE" opacity="1.000000" stroke="none" 
	d="
M349.156006,748.642334 
	C234.405014,749.000000 119.809998,748.976868 5.215141,749.104248 
	C1.521842,749.108337 0.906472,748.236572 0.909792,744.720276 
	C1.018937,629.125977 1.000000,513.531677 1.000000,397.468658 
	C1.238438,396.900055 1.476876,396.800079 2.039194,396.912842 
	C4.771198,403.815033 4.281476,410.911316 5.134095,417.807220 
	C9.765574,455.266357 19.772499,491.204651 34.770779,525.812317 
	C48.517750,557.532654 66.925797,586.392761 88.775871,613.030457 
	C110.864990,639.959534 136.650406,662.947266 165.346176,682.709351 
	C193.377701,702.014038 223.556534,717.023254 255.725433,727.973938 
	C270.694489,733.069641 285.884308,737.551270 301.934296,740.032043 
	C303.302094,740.546082 304.208771,741.328491 305.772461,741.106323 
	C310.693329,741.507019 315.219971,742.202576 319.964325,743.613892 
	C321.104370,744.062683 321.920593,744.389771 323.155151,744.184326 
	C325.061462,743.842285 326.571106,744.116211 328.339355,744.837402 
	C329.437042,745.267273 330.249969,745.424866 331.424927,745.159058 
	C333.606659,744.776367 335.337402,745.330994 337.392639,745.978027 
	C338.790771,746.502197 339.879547,746.618225 341.341125,746.141968 
	C344.020935,745.644470 346.218445,746.048035 348.614563,747.371521 
	C349.053986,747.833008 349.183014,748.058838 349.156006,748.642334 
z"/>
<path fill="#FEFEFE" opacity="1.000000" stroke="none" 
	d="
M749.668701,416.764282 
	C750.000000,526.263000 749.975464,635.525940 750.105103,744.788818 
	C750.109497,748.492737 749.222168,749.092712 745.716492,749.089355 
	C631.456787,748.981079 517.197083,749.000000 402.468658,749.000000 
	C401.896851,748.762695 401.793701,748.525391 401.883667,747.951660 
	C404.244110,745.994263 406.731995,745.725098 409.679810,745.941040 
	C410.919739,746.135376 411.796265,746.413391 413.019623,746.040161 
	C415.023865,745.227661 416.755035,744.751953 418.938049,745.027710 
	C420.087646,745.228882 420.906311,745.456238 422.058533,745.180054 
	C423.782684,744.710876 425.166992,744.153076 426.982452,744.141785 
	C428.364227,744.330933 429.307037,744.004944 430.498413,743.287476 
	C562.136047,725.119873 676.312256,632.809326 723.059631,508.398926 
	C723.745300,507.278473 724.500366,506.616913 724.692505,505.239929 
	C728.083801,493.907684 732.015625,483.130554 734.847595,472.001312 
	C735.872009,467.975586 736.935974,463.963928 737.872437,459.557495 
	C738.221863,458.176514 739.049988,457.376221 739.220093,455.984741 
	C739.244751,455.270416 739.295593,454.865570 739.490967,454.178772 
	C739.885010,453.371216 740.179138,452.853119 740.253296,451.947571 
	C740.259094,451.246124 740.302368,450.848450 740.485596,450.173157 
	C740.977234,449.206177 741.298218,448.499878 741.249695,447.373779 
	C741.375732,445.343567 741.740601,443.661926 742.198303,441.673279 
	C742.644165,440.599091 743.272034,439.998260 743.643066,438.904236 
	C743.839661,437.994904 743.972046,437.387939 744.172974,436.476074 
	C744.414612,435.575226 744.604797,434.983948 744.757446,434.064636 
	C744.868408,433.140015 744.969666,432.527649 745.129761,431.612488 
	C745.368286,430.509064 745.431824,429.706573 745.160339,428.591003 
	C744.883545,427.211731 744.870728,426.141022 745.191772,424.761841 
	C745.735291,423.518219 746.371338,422.634338 746.030884,421.159790 
	C745.827698,419.571777 745.889038,418.353851 746.753174,416.919952 
	C747.776489,416.243652 748.549805,416.217834 749.668701,416.764282 
z"/>
<path fill="#ABA9AA" opacity="1.000000" stroke="none" 
	d="
M749.582397,366.795715 
	C750.000000,379.687561 750.000000,392.375122 750.000000,405.531342 
	C749.722717,406.135925 749.445496,406.271851 748.713806,406.315674 
	C745.963989,404.136292 746.322144,401.336761 746.674438,398.807373 
	C747.684814,391.553955 747.656738,384.365479 746.677368,377.105774 
	C746.244446,373.896729 745.926514,370.505432 747.905640,367.085693 
	C748.557495,366.715546 748.861145,366.653473 749.582397,366.795715 
z"/>
<path fill="#BAB9B9" opacity="1.000000" stroke="none" 
	d="
M391.531342,1.000000 
	C391.988617,1.194528 391.977203,1.389056 391.985321,1.875224 
	C391.513519,4.440284 389.592743,4.350081 388.057373,4.173603 
	C379.600525,3.201566 371.165253,3.205814 362.718292,4.223992 
	C361.552277,4.364543 360.403625,4.078385 359.077759,3.081474 
	C358.710876,2.432955 358.650269,2.130768 358.794861,1.414291 
	C369.687561,1.000000 380.375122,1.000000 391.531342,1.000000 
z"/>
<path fill="#FEFEFE" opacity="1.000000" stroke="none" 
	d="
M750.000000,366.532043 
	C749.802917,367.025757 749.605774,367.051544 749.113159,367.037811 
	C746.972656,362.331360 746.578552,357.464691 746.917603,352.080322 
	C747.387207,350.493622 747.997314,349.520966 749.561890,348.976196 
	C750.000000,354.688049 750.000000,360.376068 750.000000,366.532043 
z"/>
<path fill="#8C8C8C" opacity="1.000000" stroke="none" 
	d="
M388.098511,748.537842 
	C379.979095,749.000000 371.958191,749.000000 363.468628,749.000000 
	C362.934906,748.692932 362.869843,748.385803 363.138306,747.745361 
	C371.179443,745.697754 378.929626,746.367004 387.105621,747.200439 
	C387.753784,747.627869 387.975403,747.851746 388.098511,748.537842 
z"/>
<path fill="#A2A1A2" opacity="1.000000" stroke="none" 
	d="
M1.000000,367.468536 
	C1.000000,367.000000 1.492737,366.997009 1.739076,366.992859 
	C4.909893,373.397125 3.388229,380.041473 2.823166,387.060730 
	C2.394358,387.727173 2.169941,387.957092 1.472762,388.093506 
	C1.000000,381.312347 1.000000,374.624725 1.000000,367.468536 
z"/>
<path fill="#FEFEFE" opacity="1.000000" stroke="none" 
	d="
M358.535339,1.000000 
	C359.010498,1.195067 359.020996,1.390134 359.010925,1.877502 
	C355.306427,4.083717 351.370087,4.445755 346.897522,3.936190 
	C345.629395,3.416161 345.096954,2.760934 344.927185,1.431331 
	C349.356903,1.000000 353.713806,1.000000 358.535339,1.000000 
z"/>
<path fill="#B4B2B2" opacity="1.000000" stroke="none" 
	d="
M362.644592,747.804626 
	C362.948151,748.140686 362.966339,748.570801 362.983154,748.785400 
	C358.643097,749.000000 354.286194,749.000000 349.464661,749.000000 
	C349.016693,748.801880 349.033417,748.603760 349.024231,748.108521 
	C349.165802,746.240906 350.438599,745.940857 351.545227,746.066956 
	C355.149109,746.477661 358.872864,746.028137 362.644592,747.804626 
z"/>
<path fill="#B7B5B6" opacity="1.000000" stroke="none" 
	d="
M388.464661,749.000000 
	C388.000000,749.000000 388.055206,748.589050 388.059998,748.381775 
	C392.455017,745.644104 397.098877,745.943542 401.907043,747.381836 
	C401.993805,748.017090 401.979034,748.213501 401.982117,748.704956 
	C397.643097,749.000000 393.286194,749.000000 388.464661,749.000000 
z"/>
<path fill="#ABA9AA" opacity="1.000000" stroke="none" 
	d="
M750.000000,348.625000 
	C748.830383,348.923676 748.959839,349.998749 748.342407,350.809448 
	C744.839661,350.112091 745.819763,348.167542 747.371582,346.095093 
	C748.311401,346.096954 748.805603,346.195587 749.649902,346.147125 
	C750.000000,346.750000 750.000000,347.500000 750.000000,348.625000 
z"/>
<path fill="#FEFEFE" opacity="1.000000" stroke="none" 
	d="
M748.469299,406.281738 
	C748.954834,405.975433 749.163940,405.957184 749.686523,405.969452 
	C750.000000,408.700012 750.000000,411.400024 750.000000,414.550018 
	C748.641296,415.350830 748.143127,414.323090 747.380798,413.096832 
	C746.649658,410.535004 747.161926,408.511536 748.469299,406.281738 
z"/>
<path fill="#ABA9AA" opacity="1.000000" stroke="none" 
	d="
M747.658508,412.997803 
	C748.563293,413.659973 748.976746,414.322815 749.695068,414.992859 
	C750.000000,415.444458 750.000000,415.888885 750.000000,416.666687 
	C749.389038,417.008789 748.778137,417.017578 747.840332,417.048645 
	C745.621582,415.864563 745.942627,414.469940 747.658508,412.997803 
z"/>
<path fill="#CBCBCB" opacity="1.000000" stroke="none" 
	d="
M1.000000,388.449982 
	C1.000000,388.000000 1.467516,388.020630 1.701495,388.022339 
	C4.102649,390.581635 3.657528,393.381104 2.384634,396.598999 
	C1.894952,396.971802 1.715867,396.974121 1.268391,396.988220 
	C1.000000,394.299988 1.000000,391.599976 1.000000,388.449982 
z"/>
<path fill="#BAB9B9" opacity="1.000000" stroke="none" 
	d="
M344.666687,1.000000 
	C345.255432,1.465081 345.510834,1.930160 345.882812,2.650699 
	C345.835968,5.308279 344.505219,4.684511 343.071045,3.590349 
	C343.059540,2.688686 343.129700,2.201034 343.099915,1.356690 
	C343.444458,1.000000 343.888885,1.000000 344.666687,1.000000 
z"/>
<path fill="#2C2627" opacity="1.000000" stroke="none" 
	d="
M342.600891,3.262593 
	C343.838623,3.782541 344.730255,3.500484 345.808655,3.104008 
	C350.045654,2.703869 354.091888,2.501580 358.564270,2.234548 
	C369.776154,2.293108 380.561951,2.416411 391.676300,2.353289 
	C396.043915,2.430820 400.082947,2.694778 404.564514,2.943129 
	C405.452789,2.966903 405.898682,3.005283 406.678833,3.074574 
	C409.731384,3.393859 412.449799,3.681361 415.585938,3.965370 
	C416.455627,3.990001 416.906311,4.031835 417.689728,4.149314 
	C419.765228,4.456385 421.506439,4.703769 423.627319,4.941171 
	C424.457458,4.973264 424.906891,5.025033 425.689331,5.145606 
	C429.419983,5.746101 432.816498,6.287491 436.613159,6.847537 
	C437.460022,6.935195 437.906830,7.003818 438.687683,7.130071 
	C475.302826,13.652631 510.089630,24.738873 542.959961,41.457573 
	C609.549194,75.326591 661.689636,124.576416 699.227417,189.197067 
	C703.402588,196.384521 707.102722,203.847946 711.185425,211.503479 
	C711.594116,212.561264 712.109802,213.132874 712.582947,214.039612 
	C722.375366,235.211502 730.466919,256.709076 736.490417,279.386169 
	C736.704102,280.332336 736.931641,280.867096 737.149658,281.703064 
	C738.289673,286.645050 739.354919,291.308502 740.535645,296.364349 
	C740.721008,297.326996 740.929871,297.865051 741.089722,298.707886 
	C741.247559,299.685608 741.353516,300.381866 741.558838,301.416351 
	C741.724976,302.325043 741.930359,302.864349 742.084473,303.708160 
	C742.314880,305.107178 742.495544,306.224426 742.771973,307.667969 
	C742.928711,308.439209 742.998596,308.882751 743.152588,309.653137 
	C743.325806,310.678009 743.423828,311.374634 743.613647,312.411133 
	C743.758057,313.321167 743.939514,313.865936 744.082642,314.708893 
	C744.261047,315.996338 744.392273,317.002441 744.609741,318.379211 
	C744.874084,319.605682 744.995789,320.469940 745.145386,321.660889 
	C745.305176,322.992004 745.405457,324.001190 745.593262,325.380646 
	C745.863586,326.605469 746.011047,327.464905 746.071533,328.666473 
	C746.266174,330.641632 746.428406,332.291138 746.670227,334.345337 
	C746.895081,335.608795 747.001160,336.472076 747.081970,337.666687 
	C747.304871,340.398865 747.492188,342.806671 747.748413,345.606384 
	C746.969971,347.475616 747.583557,348.989197 747.910400,350.747986 
	C748.313721,356.041473 748.512451,361.077576 748.764404,366.555969 
	C747.946594,371.611755 748.566956,376.236145 748.615845,380.865753 
	C748.701782,389.009399 748.462402,397.156433 748.552490,405.647888 
	C748.553406,408.066772 748.361145,410.139832 748.159363,412.605042 
	C747.230164,413.967957 747.476318,415.203369 747.449829,416.716675 
	C747.402954,418.441132 747.292297,419.811310 747.167480,421.594177 
	C747.050659,422.564056 746.956665,423.122894 746.820801,423.960693 
	C746.586365,425.562958 746.376892,426.883209 746.142944,428.604736 
	C746.054688,429.454132 745.986694,429.901550 745.848206,430.681274 
	C745.642700,431.644897 745.502563,432.275421 745.317993,433.226044 
	C745.461914,434.213287 745.080261,434.779358 744.877197,435.701355 
	C744.674683,436.647675 744.541565,437.281982 744.359558,438.237000 
	C744.538574,439.366364 743.908569,439.963898 743.750977,440.965881 
	C743.225098,443.245697 742.734985,445.246124 742.187927,447.626587 
	C742.037354,448.573883 741.910828,449.132721 741.645264,449.951782 
	C741.471130,450.622559 741.357056,451.012909 741.197693,451.705688 
	C741.046265,452.573181 740.915955,453.131866 740.657715,453.953186 
	C740.480164,454.622742 740.360291,455.011230 740.211731,455.703979 
	C740.060486,456.568542 739.935608,457.128174 739.724487,457.960510 
	C735.956299,474.075745 731.494080,489.687622 725.650635,505.273529 
	C725.598145,506.451080 724.917969,506.970215 724.636841,507.956055 
	C708.303406,550.439087 685.507507,588.736389 655.306274,622.449402 
	C595.054077,689.707642 520.299316,730.487305 430.623230,744.646912 
	C429.655060,744.813416 429.113800,744.949463 428.284363,745.039795 
	C426.255005,745.266968 424.502380,745.466125 422.381683,745.752441 
	C421.569946,745.906677 421.125458,745.967712 420.346497,746.066772 
	C417.932220,746.312683 415.851685,746.515442 413.391235,746.792603 
	C412.567200,746.921570 412.122528,746.971375 411.343384,747.049744 
	C408.272461,747.275513 405.535461,747.467224 402.403503,747.739746 
	C397.659027,747.898987 393.309448,747.977356 388.512329,748.115112 
	C380.003052,748.105225 371.941315,748.035950 363.413879,748.053711 
	C358.508179,747.910767 354.068237,747.680847 349.313293,747.631104 
	C346.598541,747.594116 344.198761,747.376770 341.392212,747.165283 
	C340.192749,747.014282 339.385376,746.998291 338.284668,746.883545 
	C335.914886,746.607727 333.844757,746.369812 331.382202,746.130554 
	C330.544312,746.063538 330.098541,746.000671 329.318451,745.890503 
	C327.241028,745.589722 325.497589,745.338745 323.374268,745.079834 
	C322.543060,745.029053 322.093445,744.972656 321.312103,744.836853 
	C315.919861,743.900696 310.860779,743.031982 305.397156,742.131653 
	C304.435333,742.028320 303.881378,741.938660 303.060455,741.750122 
	C254.411835,731.816162 209.183350,714.010864 168.474701,685.992432 
	C69.240860,617.693237 14.413157,523.074463 2.692269,403.314362 
	C2.513856,401.491364 2.411189,399.660980 2.173604,397.401794 
	C2.064957,394.284393 2.055876,391.599243 1.991135,388.469086 
	C2.004961,381.321777 2.074449,374.619507 2.064675,367.453003 
	C2.962451,338.596405 6.415261,310.542572 13.551375,283.000885 
	C32.869843,208.441711 71.371887,145.555191 129.163513,94.717812 
	C185.085922,45.524742 250.204880,15.980329 324.369263,5.327799 
	C325.349579,5.161940 325.891083,5.043102 326.716217,4.957124 
	C328.743896,4.748740 330.496429,4.567923 332.615051,4.294064 
	C333.424957,4.119506 333.870972,4.053272 334.656860,3.978317 
	C337.400177,3.750937 339.806274,3.549892 342.600891,3.262593 
z"/>
<path fill="#ABA9AA" opacity="1.000000" stroke="none" 
	d="
M745.418579,321.808960 
	C744.385925,321.292267 744.405273,320.343781 744.553223,319.074799 
	C745.809082,319.451721 745.942139,320.471497 745.418579,321.808960 
z"/>
<path fill="#ABA9AA" opacity="1.000000" stroke="none" 
	d="
M746.314209,328.813660 
	C745.870483,328.126099 745.637085,327.260071 745.542236,326.072510 
	C746.824585,326.460052 746.919983,327.475830 746.314209,328.813660 
z"/>
<path fill="#ABA9AA" opacity="1.000000" stroke="none" 
	d="
M747.328369,337.817261 
	C746.378052,337.254822 746.429871,336.319366 746.606140,335.069397 
	C747.843811,335.487854 747.915710,336.504517 747.328369,337.817261 
z"/>
<path fill="#ABA9AA" opacity="1.000000" stroke="none" 
	d="
M712.721191,214.012619 
	C711.752136,213.991989 711.469971,213.225586 711.288269,212.126221 
	C712.336914,212.059631 712.693420,212.790222 712.721191,214.012619 
z"/>
<path fill="#BAB9B9" opacity="1.000000" stroke="none" 
	d="
M406.883057,2.874596 
	C406.436676,3.170922 405.860352,3.235492 405.145508,3.113791 
	C405.480194,2.164880 406.076477,2.157181 406.883057,2.874596 
z"/>
<path fill="#BAB9B9" opacity="1.000000" stroke="none" 
	d="
M417.906067,3.962353 
	C417.492065,4.854382 416.883392,4.509088 416.146149,4.152674 
	C416.500092,3.166404 417.109833,3.192512 417.906067,3.962353 
z"/>
<path fill="#BAB9B9" opacity="1.000000" stroke="none" 
	d="
M425.904053,4.960849 
	C425.478912,5.807529 424.872559,5.491843 424.141479,5.126697 
	C424.511139,4.126288 425.123138,4.216267 425.904053,4.960849 
z"/>
<path fill="#BAB9B9" opacity="1.000000" stroke="none" 
	d="
M438.904541,6.947237 
	C438.462219,7.762681 437.863007,7.470525 437.140625,7.067242 
	C437.539917,6.094165 438.146942,6.214978 438.904541,6.947237 
z"/>
<path fill="#ABA9AA" opacity="1.000000" stroke="none" 
	d="
M744.334351,314.861359 
	C743.896851,314.433746 743.663879,313.877258 743.568176,313.035889 
	C744.571045,313.164276 744.891602,313.806763 744.334351,314.861359 
z"/>
<path fill="#ABA9AA" opacity="1.000000" stroke="none" 
	d="
M743.432495,309.820831 
	C742.458862,309.666901 742.573975,308.999329 742.726562,308.183716 
	C743.640320,308.311188 743.855042,308.885834 743.432495,309.820831 
z"/>
<path fill="#ABA9AA" opacity="1.000000" stroke="none" 
	d="
M742.327637,303.850098 
	C741.892151,303.437164 741.650085,302.884430 741.533081,302.043121 
	C742.532959,302.147430 742.819641,302.799744 742.327637,303.850098 
z"/>
<path fill="#ABA9AA" opacity="1.000000" stroke="none" 
	d="
M741.340027,298.854980 
	C740.890259,298.437439 740.638916,297.885590 740.519287,297.045258 
	C741.512939,297.155609 741.823730,297.803467 741.340027,298.854980 
z"/>
<path fill="#ABA9AA" opacity="1.000000" stroke="none" 
	d="
M737.420288,281.840271 
	C736.944763,281.438995 736.665161,280.896362 736.505981,280.055481 
	C737.521240,280.116486 737.836487,280.771149 737.420288,281.840271 
z"/>
<path fill="#BAB9B9" opacity="1.000000" stroke="none" 
	d="
M334.831055,3.741106 
	C334.614746,4.653740 333.963287,4.558004 333.156250,4.360178 
	C333.312836,3.397547 333.877716,3.180425 334.831055,3.741106 
z"/>
<path fill="#BAB9B9" opacity="1.000000" stroke="none" 
	d="
M326.868530,4.725978 
	C326.443512,5.112146 325.895660,5.294734 325.073364,5.346340 
	C325.229919,4.372164 325.848511,4.055854 326.868530,4.725978 
z"/>
<path fill="#B4B2B2" opacity="1.000000" stroke="none" 
	d="
M338.147339,747.102051 
	C338.842072,746.179260 339.739716,746.511902 340.809265,746.954590 
	C340.159607,748.176941 339.244812,747.912842 338.147339,747.102051 
z"/>
<path fill="#B4B2B2" opacity="1.000000" stroke="none" 
	d="
M302.884766,741.927246 
	C303.374664,741.693298 303.966064,741.680115 304.775024,741.883545 
	C304.347260,743.094971 303.666931,742.628540 302.884766,741.927246 
z"/>
<path fill="#B4B2B2" opacity="1.000000" stroke="none" 
	d="
M321.093262,745.013062 
	C321.528198,744.129028 322.132141,744.485596 322.860596,744.872742 
	C322.471588,745.837524 321.860199,745.746216 321.093262,745.013062 
z"/>
<path fill="#B4B2B2" opacity="1.000000" stroke="none" 
	d="
M329.105408,746.077698 
	C329.531342,745.247559 330.132629,745.547729 330.858337,745.931885 
	C330.477020,746.905090 329.870483,746.788635 329.105408,746.077698 
z"/>
<path fill="#ABA9AA" opacity="1.000000" stroke="none" 
	d="
M740.831177,454.145752 
	C740.618835,453.626526 740.637634,453.018738 740.904419,452.209564 
	C742.132202,452.735535 741.537537,453.393738 740.831177,454.145752 
z"/>
<path fill="#ABA9AA" opacity="1.000000" stroke="none" 
	d="
M739.900330,458.141357 
	C739.700562,457.645721 739.720947,457.047852 739.962158,456.229126 
	C741.156067,456.715820 740.537964,457.374359 739.900330,458.141357 
z"/>
<path fill="#ABA9AA" opacity="1.000000" stroke="none" 
	d="
M724.857666,508.086731 
	C724.724426,507.468231 724.869934,506.703033 725.279968,505.782867 
	C726.020142,506.506592 725.658875,507.237579 724.857666,508.086731 
z"/>
<path fill="#B7B5B6" opacity="1.000000" stroke="none" 
	d="
M428.126404,745.276245 
	C428.560333,744.860413 429.112976,744.653076 429.937012,744.600098 
	C429.780334,745.606384 429.156219,745.931213 428.126404,745.276245 
z"/>
<path fill="#ABA9AA" opacity="1.000000" stroke="none" 
	d="
M747.004395,424.124573 
	C746.771240,423.646576 746.746704,423.050415 746.937744,422.230530 
	C748.148315,422.644318 747.639282,423.326599 747.004395,424.124573 
z"/>
<path fill="#B7B5B6" opacity="1.000000" stroke="none" 
	d="
M420.163330,746.328186 
	C420.375122,745.389099 421.027832,745.483398 421.837311,745.681213 
	C421.667816,746.606079 421.108459,746.859009 420.163330,746.328186 
z"/>
<path fill="#B7B5B6" opacity="1.000000" stroke="none" 
	d="
M411.158447,747.300171 
	C411.392273,746.384399 412.040009,746.527405 412.833160,746.716675 
	C412.644318,747.610779 412.086212,747.853210 411.158447,747.300171 
z"/>
<path fill="#ABA9AA" opacity="1.000000" stroke="none" 
	d="
M741.816772,450.143982 
	C741.609192,449.630981 741.633240,449.029785 741.894104,448.217590 
	C743.118774,448.730621 742.519043,449.390594 741.816772,450.143982 
z"/>
<path fill="#ABA9AA" opacity="1.000000" stroke="none" 
	d="
M743.968689,441.059021 
	C743.765442,440.484009 743.815674,439.722717 744.088318,438.759583 
	C744.933289,439.354340 744.686951,440.117737 743.968689,441.059021 
z"/>
<path fill="#ABA9AA" opacity="1.000000" stroke="none" 
	d="
M745.084351,435.785400 
	C744.122009,435.260010 744.627441,434.542877 745.073975,433.682007 
	C745.726013,434.198151 745.722839,434.869965 745.084351,435.785400 
z"/>
<path fill="#ABA9AA" opacity="1.000000" stroke="none" 
	d="
M746.016846,430.894928 
	C745.167847,430.454132 745.522034,429.859009 745.919189,429.137756 
	C746.875122,429.542542 746.676331,430.150543 746.016846,430.894928 
z"/>
<path fill="#ED4037" opacity="1.000000" stroke="none" 
	d="
M152.683121,89.680649 
	C158.993683,82.191841 167.559631,77.255013 175.681412,71.892303 
	C203.465347,53.546921 233.208084,39.130417 265.017914,29.143021 
	C294.361786,19.929876 324.367310,14.467784 355.113403,12.674225 
	C395.220917,10.334570 434.629150,14.536672 473.200531,25.351194 
	C521.538269,38.903969 565.273376,61.553501 604.328857,93.332191 
	C641.079956,123.235794 670.871948,158.833572 693.753723,200.217117 
	C712.499634,234.120621 725.481750,270.118500 732.428528,308.310364 
	C735.174072,323.404541 737.214233,338.540253 738.055115,353.840271 
	C738.384583,359.833984 737.996826,360.076385 732.414612,357.709442 
	C711.742920,348.944489 691.169983,339.943054 670.431335,331.340698 
	C645.171997,320.863190 619.318604,312.166565 592.411865,306.928375 
	C588.824951,306.230072 586.806641,304.981598 585.787048,300.975952 
	C572.832764,250.079468 528.311646,211.864059 476.134705,205.900635 
	C422.242126,199.741165 370.825012,227.010666 346.573944,275.417725 
	C342.258423,284.031830 337.316101,285.679871 329.319458,285.968201 
	C289.000488,287.421844 249.078079,292.320587 209.548370,300.404388 
	C160.680252,310.397888 113.214966,325.178711 66.477974,342.417816 
	C50.084911,348.464447 33.752724,354.678802 17.447569,360.958923 
	C13.840443,362.348267 12.450893,362.112152 12.662297,357.681793 
	C14.323315,322.871948 20.873909,289.049927 32.245857,256.101562 
	C43.405685,223.767761 58.972870,193.731201 78.682190,165.840576 
	C87.988594,152.671112 97.855003,139.913498 109.652084,128.376114 
	C111.154961,131.407288 108.630592,133.197571 107.324921,135.339798 
	C97.709480,151.115906 91.241440,167.823669 91.308792,186.639603 
	C91.419044,217.441559 114.912949,239.108398 144.923218,240.727737 
	C179.548798,242.596100 208.184677,229.078766 233.608231,207.043137 
	C252.992538,190.241974 266.794495,169.839310 272.688416,144.591171 
	C276.256866,129.304794 275.316254,114.284462 267.501831,100.470139 
	C258.195221,84.018013 243.132721,75.800919 224.798752,73.450920 
	C201.257141,70.433426 179.624237,76.735809 159.087479,87.786613 
	C157.190674,88.807289 155.380829,90.090546 152.683121,89.680649 
z"/>
<path fill="#FEFEFE" opacity="1.000000" stroke="none" 
	d="
M135.850677,414.428406 
	C161.116257,406.980042 186.519745,401.570435 212.099915,396.929565 
	C253.285141,389.457642 294.807373,385.124939 336.610840,383.249084 
	C340.558716,383.071960 342.644928,383.839569 344.594269,387.759369 
	C367.244232,433.304840 404.019562,459.395660 454.787872,462.178070 
	C501.587433,464.743011 539.170715,445.197052 566.651245,407.087830 
	C569.548706,403.069794 572.121033,402.375122 576.557617,403.326355 
	C627.518555,414.253174 676.880737,430.312836 725.408813,449.141357 
	C729.194519,450.610168 730.078186,452.252869 729.143799,456.129822 
	C720.936646,490.185181 708.602722,522.601379 691.072876,552.973267 
	C688.772888,556.958191 686.022644,560.683228 683.235718,564.760132 
	C651.850220,594.424072 617.343506,618.896301 577.643005,635.454834 
	C549.522522,647.183411 520.333008,655.015381 489.963959,658.507080 
	C475.881866,660.126160 461.762146,661.473145 447.661774,661.162781 
	C401.701050,660.151062 357.496765,650.941528 315.464661,631.762878 
	C284.873566,617.804504 257.006409,599.725647 232.157455,577.228577 
	C203.393280,551.186951 179.658951,521.090881 161.760757,486.482941 
	C151.228592,466.118073 142.953827,444.911530 136.489182,422.962494 
	C135.707901,420.309845 134.332291,417.633514 135.850677,414.428406 
z"/>
<path fill="#A29E9F" opacity="1.000000" stroke="none" 
	d="
M135.728653,414.103943 
	C137.042023,423.165192 140.352646,431.588531 143.270828,440.029694 
	C156.277496,477.652924 175.257736,511.919556 200.830139,542.599304 
	C228.940231,576.323669 262.408478,603.286926 301.255859,623.483765 
	C333.085083,640.031921 366.882172,650.809509 402.431000,656.049438 
	C418.592896,658.431641 434.837280,659.924622 451.137421,659.741028 
	C506.003845,659.123108 557.829895,646.517639 606.204163,620.115906 
	C631.653870,606.226013 654.587402,589.039978 675.897888,569.536499 
	C677.865723,567.735535 679.886658,566.036682 682.636719,564.911499 
	C680.868103,571.584473 676.300415,576.736145 672.424744,582.211609 
	C636.933655,632.352905 591.804260,671.438232 536.809570,698.850586 
	C498.468964,717.961548 457.896149,729.751831 415.233002,734.305359 
	C353.268097,740.919067 293.403442,732.600647 235.812393,708.868408 
	C198.574097,693.523132 164.854767,672.385193 134.637253,645.660767 
	C99.022232,614.162781 70.516869,577.218933 49.287441,534.712158 
	C36.970005,510.049561 27.684536,484.254578 21.241814,457.415680 
	C20.193089,453.046967 21.589220,451.553680 25.297218,450.156372 
	C59.744949,437.175415 94.537308,425.260132 130.104630,415.689758 
	C131.870499,415.214600 133.602737,414.614441 135.728653,414.103943 
z"/>
<path fill="#575759" opacity="1.000000" stroke="none" 
	d="
M38.683369,361.282104 
	C46.835472,356.322571 55.794178,354.284882 64.307045,351.163940 
	C80.648827,345.172760 97.110718,339.474365 113.686577,334.165985 
	C131.374603,328.501465 149.127563,323.089478 167.213516,318.655579 
	C184.760681,314.353760 202.279114,309.982666 220.003067,306.498474 
	C236.256821,303.303314 252.657043,300.949982 269.099243,298.977753 
	C291.671570,296.270203 314.282898,293.949982 337.059235,293.873779 
	C344.000214,293.850586 348.237244,291.502899 351.380585,284.121368 
	C362.596680,257.782257 382.091400,238.510986 407.396423,225.625763 
	C420.681122,218.861267 435.114532,215.185089 450.252197,213.706421 
	C477.154022,211.078598 501.842194,217.214279 524.489624,231.124130 
	C548.724670,246.009094 565.851440,267.089905 575.270935,294.170685 
	C576.743958,298.405548 578.541870,302.571930 578.941345,307.046356 
	C579.318909,311.274689 581.511169,313.170074 585.460327,313.858704 
	C603.162537,316.945404 620.395996,321.817657 637.396606,327.585083 
	C658.338989,334.689697 678.622375,343.410980 698.844971,352.306244 
	C710.254395,357.324921 721.642944,362.473694 733.359924,366.673859 
	C738.878967,368.652252 740.746460,371.906982 740.960449,377.018280 
	C741.854065,398.361389 740.112366,419.491516 735.766968,440.408661 
	C735.127441,443.486664 734.002258,444.335358 730.625916,443.029907 
	C693.915527,428.835693 656.830994,415.695801 618.763794,405.581635 
	C602.916443,401.371124 586.853271,397.970795 570.877502,394.247864 
	C568.043213,393.587341 566.139648,394.355408 564.319580,397.150848 
	C544.417725,427.717773 516.999268,447.150696 480.591370,453.168762 
	C451.163483,458.033020 423.866486,452.450592 398.400604,437.079803 
	C375.784637,423.429199 359.515961,404.385498 349.496124,380.006622 
	C347.835297,375.965759 345.559204,374.153839 341.100006,375.452026 
	C339.230072,375.996399 337.155945,375.937408 335.171326,375.974640 
	C313.918182,376.373779 292.815826,378.518097 271.683899,380.719177 
	C249.407578,383.039429 227.233292,386.044312 205.293335,390.298828 
	C185.635895,394.110748 165.951797,397.910339 146.619034,403.463409 
	C129.556229,408.364441 112.452202,413.157135 95.357613,417.966949 
	C92.851723,418.672028 90.683472,420.696991 87.397453,420.049896 
	C76.961342,420.021362 69.216805,414.329010 61.917168,408.747894 
	C49.329739,399.123840 41.625931,385.991852 38.277901,370.435181 
	C37.648239,367.509460 37.167500,364.519775 38.683369,361.282104 
z"/>
<path fill="#FFFEFD" opacity="1.000000" stroke="none" 
	d="
M152.191956,89.632980 
	C161.679123,85.253220 170.624832,80.080658 180.544968,76.994278 
	C199.041138,71.239716 217.683746,68.908844 236.537033,74.789894 
	C262.284424,82.821465 277.021973,104.265015 275.644409,131.287247 
	C274.506042,153.617783 265.432648,172.860703 251.659515,189.937576 
	C229.656693,217.218201 201.793396,235.329590 166.887848,241.206421 
	C150.536285,243.959427 134.282501,242.875549 119.114365,235.145340 
	C98.268867,224.521744 87.360123,202.112518 90.459045,177.279556 
	C92.682892,159.459076 100.035294,143.806076 109.945648,128.697968 
	C122.108727,113.337311 136.087662,100.442299 152.191956,89.632980 
z"/>
<path fill="#363638" opacity="1.000000" stroke="none" 
	d="
M38.536617,361.014771 
	C38.455578,386.616608 59.553551,413.260529 86.754028,419.774109 
	C80.152763,424.345032 72.042366,425.012268 64.701538,427.936218 
	C51.389954,433.238342 37.439590,436.846313 24.366070,442.827301 
	C19.228294,445.177795 18.206989,444.606079 16.558119,439.268036 
	C13.555060,429.545929 13.214092,419.447723 11.883876,409.472412 
	C10.422907,398.516571 11.462017,387.568817 10.939306,376.635345 
	C10.789138,373.494293 11.984710,371.918671 14.734674,370.537781 
	C22.302132,366.737854 30.182777,363.786346 38.536617,361.014771 
z"/>
<path fill="#2C282A" opacity="1.000000" stroke="none" 
	d="
M375.025818,324.183411 
	C377.288239,297.439240 389.000000,276.367126 409.724518,260.153809 
	C424.887360,248.291550 442.160126,242.048645 461.257843,241.619431 
	C484.293549,241.101730 504.977539,247.920792 522.671631,263.169678 
	C540.307617,278.368469 550.554199,297.669739 553.616028,320.461304 
	C555.369141,333.510284 553.967590,346.675323 549.696411,359.334534 
	C544.772949,373.927124 536.671753,386.467499 525.426392,396.991638 
	C512.213867,409.356750 496.644653,417.093140 478.820007,419.837311 
	C453.699799,423.704681 430.451324,418.434204 410.259430,402.896515 
	C391.603455,388.540619 379.591919,369.771942 375.901398,346.044220 
	C374.788300,338.887878 375.255005,331.787079 375.025818,324.183411 
z"/>
<path fill="#F8F8F8" opacity="1.000000" stroke="none" 
	d="
M524.691162,276.322449 
	C564.281433,322.537384 545.594543,391.254669 488.875092,409.201843 
	C454.107544,420.202972 416.261658,406.689209 395.978180,376.030884 
	C376.216919,346.161896 378.613861,306.409790 401.839111,278.829224 
	C433.697632,240.996445 490.781738,239.713272 524.691162,276.322449 
z"/>
<path fill="#393536" opacity="1.000000" stroke="none" 
	d="
M427.608826,382.409729 
	C407.439362,366.802856 398.553589,346.513733 402.268097,321.696594 
	C405.802216,298.084717 419.488892,281.542877 441.608826,272.667572 
	C469.033661,261.663696 500.516510,271.948700 516.890564,296.632721 
	C532.949890,320.842255 530.032104,353.738373 509.977325,374.576447 
	C489.201508,396.163696 457.097351,400.459442 431.682587,385.045502 
	C430.402588,384.269165 429.160828,383.429749 427.608826,382.409729 
z"/>
<path fill="#FDFDFD" opacity="1.000000" stroke="none" 
	d="
M505.565918,371.555603 
	C488.059021,388.176422 467.889526,393.488220 445.408508,385.633881 
	C423.393036,377.942169 410.177734,361.719299 407.240692,338.580597 
	C404.219635,314.779968 413.557098,295.796021 433.560608,282.566223 
	C457.256531,266.894379 489.755188,272.038757 508.218018,293.943451 
	C527.587341,316.923615 526.598633,348.675110 505.565918,371.555603 
z"/>
</svg>