<?xml version="1.0" encoding="UTF-8"?>
<svg xmlns="http://www.w3.org/2000/svg" xmlns:xlink="http://www.w3.org/1999/xlink" width="25px" height="25px" viewBox="0 0 25 25" version="1.1">
<g id="surface1">
<path style=" stroke:none;fill-rule:nonzero;fill:rgb(0%,0%,0%);fill-opacity:1;" d="M 23.074219 9.648438 L 16 8.726562 L 12.949219 2.273438 C 12.773438 1.898438 12.226562 1.898438 12.050781 2.273438 L 9 8.726562 L 1.925781 9.648438 C 1.5 9.699219 1.351562 10.199219 1.648438 10.5 L 6.824219 15.398438 L 5.523438 22.425781 C 5.449219 22.824219 5.875 23.148438 6.25 22.949219 L 12.5 19.550781 L 18.75 22.949219 C 19.125 23.148438 19.550781 22.824219 19.476562 22.425781 L 18.175781 15.398438 L 23.351562 10.5 C 23.648438 10.199219 23.476562 9.699219 23.074219 9.648438 Z M 17.273438 14.875 C 17.148438 15 17.101562 15.148438 17.125 15.324219 L 18.300781 21.574219 L 12.75 18.523438 C 12.675781 18.476562 12.601562 18.476562 12.5 18.476562 C 12.425781 18.476562 12.324219 18.5 12.25 18.523438 L 6.699219 21.574219 L 7.875 15.324219 C 7.898438 15.148438 7.851562 15 7.726562 14.875 L 3.101562 10.5 L 9.398438 9.675781 C 9.574219 9.648438 9.726562 9.550781 9.800781 9.398438 L 12.5 3.648438 L 15.226562 9.375 C 15.300781 9.523438 15.449219 9.625 15.601562 9.648438 L 21.898438 10.5 Z M 17.273438 14.875 "/>
</g>
</svg>
