<?xml version="1.0" encoding="UTF-8"?>
<svg xmlns="http://www.w3.org/2000/svg" xmlns:xlink="http://www.w3.org/1999/xlink" width="50px" height="50px" viewBox="0 0 50 50" version="1.1">
<g id="surface1">
<path style=" stroke:none;fill-rule:nonzero;fill:rgb(0%,0%,0%);fill-opacity:1;" d="M 46.148438 19.296875 L 32 17.453125 L 25.898438 4.546875 C 25.546875 3.796875 24.453125 3.796875 24.101562 4.546875 L 18 17.453125 L 3.851562 19.296875 C 3 19.398438 2.703125 20.398438 3.296875 21 L 13.648438 30.796875 L 11.046875 44.851562 C 10.898438 45.648438 11.75 46.296875 12.5 45.898438 L 25 39.101562 L 37.5 45.898438 C 38.25 46.296875 39.101562 45.648438 38.953125 44.851562 L 36.351562 30.796875 L 46.703125 21 C 47.296875 20.398438 46.953125 19.398438 46.148438 19.296875 Z M 34.546875 29.75 C 34.296875 30 34.203125 30.296875 34.25 30.648438 L 36.601562 43.148438 L 25.5 37.046875 C 25.351562 36.953125 25.203125 36.953125 25 36.953125 C 24.851562 36.953125 24.648438 37 24.5 37.046875 L 13.398438 43.148438 L 15.75 30.648438 C 15.796875 30.296875 15.703125 30 15.453125 29.75 L 6.203125 21 L 18.796875 19.351562 C 19.148438 19.296875 19.453125 19.101562 19.601562 18.796875 L 25 7.296875 L 30.453125 18.75 C 30.601562 19.046875 30.898438 19.25 31.203125 19.296875 L 43.796875 21 Z M 34.546875 29.75 "/>
<path style=" stroke:none;fill-rule:nonzero;fill:rgb(0%,0%,100%);fill-opacity:1;" d="M 542 -185 L 542 657 L -350 657 L -350 -185 L 542 -185 M 546 -189 L -354 -189 L -354 661 L 546 661 Z M 546 -189 "/>
</g>
</svg>
