<?xml version="1.0" encoding="UTF-8"?>
<svg xmlns="http://www.w3.org/2000/svg" xmlns:xlink="http://www.w3.org/1999/xlink" width="25px" height="25px" viewBox="0 0 25 25" version="1.1">
<g id="surface1">
<path style=" stroke:none;fill-rule:nonzero;fill:rgb(255, 255, 0);fill-opacity:1;" d="M 18.667969 14.917969 C 18.394531 15.175781 18.269531 15.5625 18.335938 15.925781 L 19.261719 21.050781 C 19.335938 21.488281 19.15625 21.925781 18.792969 22.175781 C 18.4375 22.4375 17.96875 22.46875 17.574219 22.261719 L 12.960938 19.855469 C 12.792969 19.769531 12.613281 19.71875 12.4375 19.71875 L 12.15625 19.71875 C 12.050781 19.726562 11.960938 19.769531 11.875 19.8125 L 7.261719 22.230469 C 7.03125 22.34375 6.769531 22.386719 6.519531 22.34375 C 5.894531 22.21875 5.492188 21.632812 5.59375 21.019531 L 6.519531 15.894531 C 6.582031 15.519531 6.457031 15.144531 6.1875 14.875 L 2.425781 11.230469 C 2.113281 10.917969 2 10.46875 2.148438 10.050781 C 2.28125 9.644531 2.636719 9.34375 3.074219 9.269531 L 8.25 8.519531 C 8.644531 8.476562 8.988281 8.238281 9.167969 7.886719 L 11.449219 3.207031 C 11.5 3.105469 11.574219 3.007812 11.65625 2.925781 L 11.75 2.855469 C 11.792969 2.800781 11.855469 2.761719 11.917969 2.71875 L 12.03125 2.675781 L 12.207031 2.605469 L 12.648438 2.605469 C 13.042969 2.644531 13.386719 2.882812 13.5625 3.226562 L 15.875 7.886719 C 16.042969 8.230469 16.363281 8.457031 16.738281 8.519531 L 21.917969 9.269531 C 22.355469 9.332031 22.71875 9.636719 22.863281 10.050781 C 23 10.46875 22.886719 10.925781 22.5625 11.230469 Z M 18.667969 14.917969 "/>
</g>
</svg>
