<?xml version="1.0" encoding="UTF-8"?>
<svg xmlns="http://www.w3.org/2000/svg" xmlns:xlink="http://www.w3.org/1999/xlink" width="50px" height="50px" viewBox="0 0 50 50" version="1.1">
<g id="surface1">
<path style=" stroke:none;fill-rule:nonzero;fill:rgb(12.54902%,5.490196%,19.607843%);fill-opacity:1;" d="M 37.332031 29.832031 C 36.792969 30.355469 36.542969 31.125 36.667969 31.855469 L 38.519531 42.105469 C 38.667969 42.980469 38.3125 43.851562 37.582031 44.355469 C 36.875 44.875 35.9375 44.9375 35.144531 44.519531 L 25.917969 39.707031 C 25.582031 39.542969 25.230469 39.4375 24.875 39.4375 L 24.3125 39.4375 C 24.105469 39.457031 23.917969 39.542969 23.75 39.625 L 14.519531 44.457031 C 14.0625 44.6875 13.542969 44.769531 13.042969 44.6875 C 11.792969 44.4375 10.980469 43.269531 11.1875 42.039062 L 13.042969 31.789062 C 13.167969 31.042969 12.917969 30.292969 12.375 29.75 L 4.855469 22.457031 C 4.230469 21.832031 4 20.9375 4.292969 20.105469 C 4.5625 19.289062 5.269531 18.6875 6.144531 18.542969 L 16.5 17.039062 C 17.292969 16.957031 17.980469 16.480469 18.332031 15.769531 L 22.894531 6.417969 C 23 6.207031 23.144531 6.019531 23.3125 5.855469 L 23.5 5.707031 C 23.582031 5.601562 23.707031 5.519531 23.835938 5.4375 L 24.0625 5.355469 L 24.417969 5.207031 L 25.292969 5.207031 C 26.085938 5.292969 26.773438 5.769531 27.125 6.457031 L 31.75 15.769531 C 32.082031 16.457031 32.730469 16.917969 33.480469 17.039062 L 43.832031 18.542969 C 44.707031 18.667969 45.4375 19.269531 45.730469 20.105469 C 46 20.9375 45.769531 21.855469 45.125 22.457031 Z M 37.332031 29.832031 "/>
</g>
</svg>
